<svg xmlns="http://www.w3.org/2000/svg" width="18" height="18" viewBox="0 0 24 24" fill="none">
  <path
    d="m19 11-8-8-8.6 8.6a2 2 0 0 0 0 2.8l5.2 5.2c.8.8 2 .8 2.8 0L19 11Z"
    stroke="#fff"
    stroke-width="3"
    stroke-linejoin="round"
    opacity="0.9"
  />
  <path d="m5 2 5 5" stroke="#fff" stroke-width="3" stroke-linecap="round" opacity="0.9" />
  <path d="M2 13h15" stroke="#fff" stroke-width="3" stroke-linecap="round" opacity="0.9" />
  <path
    d="M22 20a2 2 0 1 1-4 0c0-1.6 1.7-2.4 2-4 .3 1.6 2 2.4 2 4Z"
    stroke="#fff"
    stroke-width="3"
    opacity="0.9"
  />
  <path
    d="m19 11-8-8-8.6 8.6a2 2 0 0 0 0 2.8l5.2 5.2c.8.8 2 .8 2.8 0L19 11Z"
    stroke="#141414"
    stroke-width="1.5"
    stroke-linejoin="round"
  />
  <path d="m5 2 5 5" stroke="#141414" stroke-width="1.5" stroke-linecap="round" />
  <path d="M2 13h15" stroke="#141414" stroke-width="1.5" stroke-linecap="round" />
  <path
    d="M22 20a2 2 0 1 1-4 0c0-1.6 1.7-2.4 2-4 .3 1.6 2 2.4 2 4Z"
    stroke="#141414"
    stroke-width="1.5"
  />
</svg>
