<svg xmlns="http://www.w3.org/2000/svg" width="24" height="24" fill="none" viewBox="0 0 24 24">
  <path
    fill="currentColor"
    d="M18.25 3.75A3.75 3.75 0 0 1 22 7.5v9a3.75 3.75 0 0 1-3.75 3.75H5.75A3.75 3.75 0 0 1 2 16.5v-9a3.75 3.75 0 0 1 3.75-3.75zm-12.5 1.5A2.25 2.25 0 0 0 3.5 7.5v9a2.25 2.25 0 0 0 2.25 2.25h12.5a2.25 2.25 0 0 0 2.25-2.25v-9a2.25 2.25 0 0 0-2.25-2.25zm5.073 3.106c.464 0 .737.284.737.772v5.698c0 .484-.273.767-.737.767s-.737-.283-.737-.767v-2.295H6.912v2.295c0 .484-.273.767-.737.767s-.737-.283-.737-.767V9.128c0-.488.273-.772.737-.772s.737.284.737.772v2.187h3.174V9.128c0-.488.273-.772.737-.772m4.6.098c2.114 0 3.36 1.26 3.36 3.496 0 2.237-1.246 3.55-3.36 3.55H13.47c-.464 0-.738-.283-.738-.771V9.22c0-.484.274-.767.738-.767zm-1.216 5.825h1.04c1.318 0 2.031-.8 2.031-2.324 0-1.475-.732-2.285-2.03-2.285h-1.041z"
  />
</svg>
